<svg width="24" height="24" viewBox="0 0 24 24" fill="none" xmlns="http://www.w3.org/2000/svg">
<path fill-rule="evenodd" clip-rule="evenodd" d="M14.9048 5.3589C15.1977 5.65179 15.1977 6.12666 14.9048 6.41956L10.5283 10.7961H14.3744H20.0313C20.4455 10.7961 20.7813 11.1319 20.7813 11.5461C20.7813 11.9603 20.4455 12.2961 20.0313 12.2961H14.3744L10.5283 12.2961L14.9048 16.6726C15.1977 16.9655 15.1977 17.4404 14.9048 17.7333C14.6119 18.0262 14.137 18.0262 13.8442 17.7333L8.40697 12.2961L4.87132 12.2961L9.24784 16.6726C9.54074 16.9655 9.54074 17.4404 9.24784 17.7333C8.95495 18.0262 8.48008 18.0262 8.18718 17.7333L2.53033 12.0764C2.38968 11.9358 2.31066 11.745 2.31066 11.5461C2.31066 11.3472 2.38968 11.1564 2.53033 11.0158L8.18718 5.3589C8.48008 5.066 8.95495 5.066 9.24784 5.3589C9.54074 5.65179 9.54074 6.12666 9.24784 6.41956L4.87132 10.7961H8.40697L13.8442 5.3589C14.137 5.066 14.6119 5.066 14.9048 5.3589Z" fill="#424242"/>
</svg>