<svg width="32" height="32" viewBox="0 0 32 32" fill="none" class="icon icon-filter" xmlns="http://www.w3.org/2000/svg">
<g clip-path="url(#clip0_173_714)">
    <path d="M5.33203 6.66675H21.332" stroke="#212121" stroke-width="2.66667" stroke-linecap="round"/>
    <path d="M5.33203 16H13.332" stroke="#212121" stroke-width="2.66667" stroke-linecap="round"/>
    <path d="M18.668 16H26.668" stroke="#212121" stroke-width="2.66667" stroke-linecap="round"/>
    <path d="M10.668 25.3333H26.668" stroke="#212121" stroke-width="2.66667" stroke-linecap="round"/>
    <path d="M23.9987 9.33333C25.4715 9.33333 26.6654 8.13943 26.6654 6.66667C26.6654 5.19391 25.4715 4 23.9987 4C22.5259 4 21.332 5.19391 21.332 6.66667C21.332 8.13943 22.5259 9.33333 23.9987 9.33333Z" stroke="#212121" stroke-width="2.66667" stroke-linecap="round"/>
    <path d="M15.9987 18.6666C17.4715 18.6666 18.6654 17.4727 18.6654 15.9999C18.6654 14.5272 17.4715 13.3333 15.9987 13.3333C14.5259 13.3333 13.332 14.5272 13.332 15.9999C13.332 17.4727 14.5259 18.6666 15.9987 18.6666Z" stroke="#212121" stroke-width="2.66667" stroke-linecap="round"/>
    <path d="M7.9987 28.0001C9.47146 28.0001 10.6654 26.8062 10.6654 25.3334C10.6654 23.8607 9.47146 22.6667 7.9987 22.6667C6.52594 22.6667 5.33203 23.8607 5.33203 25.3334C5.33203 26.8062 6.52594 28.0001 7.9987 28.0001Z" stroke="#212121" stroke-width="2.66667" stroke-linecap="round"/>
</g>
<defs>
    <clipPath id="clip0_173_714">
        <rect width="32" height="32" fill="white"/>
    </clipPath>
</defs>
</svg>
